<svg version="1.1" xmlns="http://www.w3.org/2000/svg" xmlns:xlink="http://www.w3.org/1999/xlink" width="800px" height="800px" viewBox="0,0,256,256"><g fill="#248c37" fill-rule="nonzero" stroke="none" stroke-width="1" stroke-linecap="butt" stroke-linejoin="miter" stroke-miterlimit="10" stroke-dasharray="" stroke-dashoffset="0" font-family="none" font-weight="none" font-size="none" text-anchor="none" style="mix-blend-mode: normal"><g transform="translate(0.00007,-0.00025) scale(0.5,0.5)"><g><path d="M449.414,478.037l-72.517,-92.833c-16.287,-0.187 -24.22,-12.898 -28.482,-19.753c-0.437,-0.718 -0.968,-1.57 -1.499,-2.389c-0.531,0.812 -1.062,1.663 -1.499,2.374c-4.294,6.901 -12.304,19.753 -28.81,19.753c-16.521,-0.016 -24.5,-12.875 -28.794,-19.777c-0.437,-0.718 -0.968,-1.57 -1.499,-2.397c-0.547,0.82 -1.062,1.671 -1.515,2.39c-4.294,6.901 -12.305,19.745 -28.795,19.745c-16.521,-0.016 -24.5,-12.875 -28.794,-19.792c-0.437,-0.711 -0.968,-1.561 -1.499,-2.389c-0.547,0.828 -1.078,1.678 -1.515,2.389c-4.294,6.902 -12.32,19.753 -28.825,19.753c-16.521,-0.015 -24.5,-12.882 -28.795,-19.792c-0.437,-0.71 -0.968,-1.561 -1.499,-2.381c-0.516,0.812 -1.047,1.663 -1.484,2.373c-4.263,6.84 -12.18,19.473 -28.357,19.715l-72.658,93.012c-10.29,13.21 -5.044,24.008 11.727,24.008c18.176,0 26.343,-18.98 43.598,-18.98c17.271,0 17.271,28.935 34.526,28.935c17.27,0 17.27,-28.935 34.525,-28.935c17.271,0 17.271,28.935 34.526,28.935c17.27,0 17.27,-28.935 34.525,-28.935c17.271,0 17.271,28.935 34.526,28.935c17.271,0 17.271,-28.935 34.51,-28.935c17.286,0 17.286,28.935 34.51,28.935c17.271,0 17.271,-28.935 34.526,-28.935c17.27,0 25.453,18.98 43.614,18.98c16.767,0 22.03,-10.799 11.723,-24.009z"></path><path d="M134.783,366.84c15.162,0 15.162,-24.359 30.309,-24.344c15.162,0 15.131,24.376 30.278,24.391c15.178,0 15.193,-24.367 30.356,-24.344c15.147,0 15.131,24.367 30.278,24.383c15.148,0 15.163,-24.368 30.31,-24.337c15.162,0 15.146,24.36 30.293,24.376c15.162,0 15.162,-24.36 30.309,-24.337c15.163,0 15.148,24.36 30.294,24.383c16.755,0 21.924,-10.697 11.477,-23.797l-60.93,-76.484c-2.483,0.422 -5.075,0.703 -7.808,0.703c-10.868,0 -17.411,-6.246 -21.315,-11.376c-3.92,5.13 -10.447,11.376 -21.315,11.376c-10.853,0 -17.396,-6.246 -21.316,-11.376c-3.919,5.13 -10.462,11.376 -21.33,11.376c-10.852,0 -17.396,-6.238 -21.315,-11.368c-3.904,5.13 -10.447,11.368 -21.3,11.368c-2.732,0 -5.309,-0.281 -7.792,-0.703l-60.947,76.288c-10.46,13.088 -5.306,23.807 11.464,23.822z"></path><path d="M192.075,249.212c10.65,0 10.65,-16.24 21.299,-16.24c10.649,0 10.649,16.24 21.315,16.24c10.681,0 10.681,-16.24 21.314,-16.24c10.666,0 10.666,16.24 21.331,16.24c10.634,0 10.634,-16.24 21.315,-16.24c10.65,0 10.65,16.24 21.3,16.24c16.755,0 22.548,-11.204 12.882,-24.876l-59.26,-83.776c-9.635,-13.694 -25.484,-13.694 -35.165,0l-59.228,83.776c-9.682,13.671 -3.889,24.876 12.897,24.876z"></path><path d="M213.656,130.293l42.348,-26.117l42.317,26.117l-11.742,-48.337l37.913,-32.19l-49.593,-3.756l-18.895,-46.01l-18.91,46.01l-49.593,3.756l37.913,32.19z"></path></g></g></g></svg>